
        <svg xmlns="http://www.w3.org/2000/svg" xmlns:xlink="http://www.w3.org/1999/xlink" version="1.1" width="3183.4862385321103" 
        height="1306.4220183486239" viewBox="0 0 3183.4862385321103 1306.4220183486239">
			
			<g transform="scale(9.174311926605505) translate(10, 10)">
				<defs id="SvgjsDefs3630"></defs><g id="SvgjsG3631" featureKey="symbolFeature-0" transform="matrix(2.185714285714286,0,0,2.185714285714286,-30.6,-48.08571428571429)" fill="#5651e5"><g xmlns="http://www.w3.org/2000/svg" transform="translate(0,-952.36218)"><path style="font-size:medium;font-style:normal;font-variant:normal;font-weight:normal;font-stretch:normal;text-indent:0;text-align:start;text-decoration:none;line-height:normal;letter-spacing:normal;word-spacing:normal;text-transform:none;direction:ltr;block-progression:tb;writing-mode:lr-tb;text-anchor:start;baseline-shift:baseline;opacity:1;color:;fill:#5651e5;fill-opacity:1;stroke:none;stroke-width:2;marker:none;visibility:visible;display:inline;overflow:visible;enable-background:accumulate;font-family:Sans;-inkscape-font-specification:Sans" d="M 14 22 L 14 23 L 14 65 L 14 66 L 15 66 L 42.625 66 L 39.28125 76 L 31 76 L 31 78 L 69 78 L 69 76 L 60.71875 76 L 57.375 66 L 85 66 L 86 66 L 86 65 L 86 30 L 84 30 L 84 54 L 16 54 L 16 24 L 86 24 L 86 22 L 15 22 L 14 22 z M 16 56 L 84 56 L 84 64 L 16 64 L 16 56 z M 50 58 C 48.895431 58 48 58.895431 48 60 C 48 61.104569 48.895431 62 50 62 C 51.104569 62 52 61.104569 52 60 C 52 58.895431 51.104569 58 50 58 z M 44.71875 66 L 55.28125 66 L 58.625 76 L 41.375 76 L 44.71875 66 z " transform="translate(0,952.36218)"></path></g></g><g id="SvgjsG3632" featureKey="nameFeature-0" transform="matrix(3.589687972770604,0,0,3.589687972770604,168.38389438640195,-32.076255673247246)" fill="#5651e5"><path d="M15.097 31.000799999999998 l4.7032 7.7592 c0.2 0.32 0.08 0.72 -0.2 0.92 c-0.12 0.04 -0.24 0.08 -0.36 0.08 c-0.24 0 -0.44 -0.12 -0.56 -0.32 l-4.7576 -7.8492 c-0.7564 0.32442 -1.5592 0.5668 -2.3956 0.716 l4.0732 6.5332 c0.2 0.32 0.12 0.72 -0.2 0.92 c-0.08 0.04 -0.2 0.08 -0.32 0.08 c-0.24 0 -0.44 -0.12 -0.56 -0.32 l-4.412 -7.0532 l-0.548 0.013203 c-0.055588 0 -0.10918 -0.0064064 -0.15996 -0.019219 l-0.16 0.019219 l-5.52 0 l0 6.88 c0 0.36 -0.28 0.64 -0.64 0.64 s-0.68 -0.28 -0.68 -0.64 l0 -26.36 c0 -0.0816 0.016406 -0.15879 0.046016 -0.23 l-0.0060156 -0.09 c0 -0.36 0.28 -0.68 0.64 -0.68 l6.16 0 c0.0816 0 0.15879 0.016406 0.23 0.046016 l0.09 -0.0060156 c5.88 0 10.68 4.56 10.68 10.24 c0 3.6984 -2.064 6.9324 -5.1432 8.7208 l0 0 z M18.92 22.28 c0 -4.92 -4.2 -8.92 -9.36 -8.92 c-0.0816 0 -0.15879 -0.016406 -0.23 -0.046016 l-0.09 0.0060156 l-4.8604 0 l10.048 16.577 c2.6916 -1.568 4.4924 -4.3952 4.4924 -7.6168 z M3.72 19.784 l7.0692 11.339 c0.8616 -0.10801 1.6868 -0.3284 2.4588 -0.6452 l-9.528 -15.718 l0 5.0244 l0 0.000039062 z M3.72 31.1604 l5.52 0.000078124 l0.051992 0.0019922 l-5.572 -8.9076 l0 8.9056 l0 -0.000039062 z M40.507000000000005 38.72 l3.0396 -0.000039062 c0.36 0 0.64 0.28 0.64 0.64 c0 0.4 -0.28 0.68 -0.64 0.68 l-17 0 c-0.29238 0 -0.5324 -0.1852 -0.6116 -0.46916 c-0.043984 -0.086796 -0.067968 -0.1852 -0.067968 -0.29078 l0 -26.6 c0 -0.4 0.28 -0.68 0.68 -0.68 c0.36 0 0.64 0.28 0.64 0.68 l0 26.04 l2.48 0 l0 -26.04 c0 -0.4 0.32 -0.68 0.68 -0.68 s0.68 0.28 0.68 0.68 l0 15.415 z M31.026600000000002 38.72 l7.6948 0 l-7.6948 -8.6248 l0 8.6248 z"></path></g>
			</g>
		</svg>
	