
        <svg xmlns="http://www.w3.org/2000/svg" xmlns:xlink="http://www.w3.org/1999/xlink" version="1.1" width="3285.714285714286" 
        height="2259.7404039004164" viewBox="0 0 3285.714285714286 2259.7404039004164">
			
			<g transform="scale(14.285714285714286) translate(10, 10)">
				<defs id="SvgjsDefs2770"></defs><g id="SvgjsG2771" featureKey="nameFeature-0" transform="matrix(4.928031802809405,0,0,4.928031802809405,-11.82844938118782,-59.13638163371286)" fill="#5651e5"><path d="M15.097 31.000799999999998 l4.7032 7.7592 c0.2 0.32 0.08 0.72 -0.2 0.92 c-0.12 0.04 -0.24 0.08 -0.36 0.08 c-0.24 0 -0.44 -0.12 -0.56 -0.32 l-4.7576 -7.8492 c-0.7564 0.32442 -1.5592 0.5668 -2.3956 0.716 l4.0732 6.5332 c0.2 0.32 0.12 0.72 -0.2 0.92 c-0.08 0.04 -0.2 0.08 -0.32 0.08 c-0.24 0 -0.44 -0.12 -0.56 -0.32 l-4.412 -7.0532 l-0.548 0.013203 c-0.055588 0 -0.10918 -0.0064064 -0.15996 -0.019219 l-0.16 0.019219 l-5.52 0 l0 6.88 c0 0.36 -0.28 0.64 -0.64 0.64 s-0.68 -0.28 -0.68 -0.64 l0 -26.36 c0 -0.0816 0.016406 -0.15879 0.046016 -0.23 l-0.0060156 -0.09 c0 -0.36 0.28 -0.68 0.64 -0.68 l6.16 0 c0.0816 0 0.15879 0.016406 0.23 0.046016 l0.09 -0.0060156 c5.88 0 10.68 4.56 10.68 10.24 c0 3.6984 -2.064 6.9324 -5.1432 8.7208 l0 0 z M18.92 22.28 c0 -4.92 -4.2 -8.92 -9.36 -8.92 c-0.0816 0 -0.15879 -0.016406 -0.23 -0.046016 l-0.09 0.0060156 l-4.8604 0 l10.048 16.577 c2.6916 -1.568 4.4924 -4.3952 4.4924 -7.6168 z M3.72 19.784 l7.0692 11.339 c0.8616 -0.10801 1.6868 -0.3284 2.4588 -0.6452 l-9.528 -15.718 l0 5.0244 l0 0.000039062 z M3.72 31.1604 l5.52 0.000078124 l0.051992 0.0019922 l-5.572 -8.9076 l0 8.9056 l0 -0.000039062 z M41.334 38.72 l3.0396 -0.000039062 c0.36 0 0.64 0.28 0.64 0.64 c0 0.4 -0.28 0.68 -0.64 0.68 l-17 0 c-0.29238 0 -0.5324 -0.1852 -0.6116 -0.46916 c-0.043984 -0.086796 -0.067968 -0.1852 -0.067968 -0.29078 l0 -26.6 c0 -0.4 0.28 -0.68 0.68 -0.68 c0.36 0 0.64 0.28 0.64 0.68 l0 26.04 l2.48 0 l0 -26.04 c0 -0.4 0.32 -0.68 0.68 -0.68 s0.68 0.28 0.68 0.68 l0 15.415 z M31.8536 38.72 l7.6948 0 l-7.6948 -8.6248 l0 8.6248 z"></path></g>
			</g>
		</svg>
	